<svg width="320" height="154" viewBox="0 0 320 154" fill="none" xmlns="http://www.w3.org/2000/svg">
<g clip-path="url(#clip0_6737_26162)">
<g clip-path="url(#clip1_6737_26162)">
<g clip-path="url(#clip2_6737_26162)">
<g clip-path="url(#clip3_6737_26162)">
<g clip-path="url(#clip4_6737_26162)">
<path d="M8.415 9.68C8.415 10.21 8.29 10.71 8.04 11.18C7.79 11.65 7.39 12.035 6.84 12.335C6.29 12.625 5.585 12.77 4.725 12.77H2.835V17H1.125V6.575H4.725C5.525 6.575 6.2 6.715 6.75 6.995C7.31 7.265 7.725 7.635 7.995 8.105C8.275 8.575 8.415 9.1 8.415 9.68ZM4.725 11.375C5.375 11.375 5.86 11.23 6.18 10.94C6.5 10.64 6.66 10.22 6.66 9.68C6.66 8.54 6.015 7.97 4.725 7.97H2.835V11.375H4.725ZM11.7559 9.935C12.0059 9.515 12.3359 9.19 12.7459 8.96C13.1659 8.72 13.6609 8.6 14.2309 8.6V10.37H13.7959C13.1259 10.37 12.6159 10.54 12.2659 10.88C11.9259 11.22 11.7559 11.81 11.7559 12.65V17H10.0459V8.735H11.7559V9.935ZM19.3877 17.135C18.6077 17.135 17.9027 16.96 17.2727 16.61C16.6427 16.25 16.1477 15.75 15.7877 15.11C15.4277 14.46 15.2477 13.71 15.2477 12.86C15.2477 12.02 15.4327 11.275 15.8027 10.625C16.1727 9.975 16.6777 9.475 17.3177 9.125C17.9577 8.775 18.6727 8.6 19.4627 8.6C20.2527 8.6 20.9677 8.775 21.6077 9.125C22.2477 9.475 22.7527 9.975 23.1227 10.625C23.4927 11.275 23.6777 12.02 23.6777 12.86C23.6777 13.7 23.4877 14.445 23.1077 15.095C22.7277 15.745 22.2077 16.25 21.5477 16.61C20.8977 16.96 20.1777 17.135 19.3877 17.135ZM19.3877 15.65C19.8277 15.65 20.2377 15.545 20.6177 15.335C21.0077 15.125 21.3227 14.81 21.5627 14.39C21.8027 13.97 21.9227 13.46 21.9227 12.86C21.9227 12.26 21.8077 11.755 21.5777 11.345C21.3477 10.925 21.0427 10.61 20.6627 10.4C20.2827 10.19 19.8727 10.085 19.4327 10.085C18.9927 10.085 18.5827 10.19 18.2027 10.4C17.8327 10.61 17.5377 10.925 17.3177 11.345C17.0977 11.755 16.9877 12.26 16.9877 12.86C16.9877 13.75 17.2127 14.44 17.6627 14.93C18.1227 15.41 18.6977 15.65 19.3877 15.65ZM24.7982 12.83C24.7982 12 24.9682 11.265 25.3082 10.625C25.6582 9.985 26.1282 9.49 26.7182 9.14C27.3182 8.78 27.9832 8.6 28.7132 8.6C29.2532 8.6 29.7832 8.72 30.3032 8.96C30.8332 9.19 31.2532 9.5 31.5632 9.89V5.9H33.2882V17H31.5632V15.755C31.2832 16.155 30.8932 16.485 30.3932 16.745C29.9032 17.005 29.3382 17.135 28.6982 17.135C27.9782 17.135 27.3182 16.955 26.7182 16.595C26.1282 16.225 25.6582 15.715 25.3082 15.065C24.9682 14.405 24.7982 13.66 24.7982 12.83ZM31.5632 12.86C31.5632 12.29 31.4432 11.795 31.2032 11.375C30.9732 10.955 30.6682 10.635 30.2882 10.415C29.9082 10.195 29.4982 10.085 29.0582 10.085C28.6182 10.085 28.2082 10.195 27.8282 10.415C27.4482 10.625 27.1382 10.94 26.8982 11.36C26.6682 11.77 26.5532 12.26 26.5532 12.83C26.5532 13.4 26.6682 13.9 26.8982 14.33C27.1382 14.76 27.4482 15.09 27.8282 15.32C28.2182 15.54 28.6282 15.65 29.0582 15.65C29.4982 15.65 29.9082 15.54 30.2882 15.32C30.6682 15.1 30.9732 14.78 31.2032 14.36C31.4432 13.93 31.5632 13.43 31.5632 12.86ZM43.0192 8.735V17H41.3092V16.025C41.0392 16.365 40.6842 16.635 40.2442 16.835C39.8142 17.025 39.3542 17.12 38.8642 17.12C38.2142 17.12 37.6292 16.985 37.1092 16.715C36.5992 16.445 36.1942 16.045 35.8942 15.515C35.6042 14.985 35.4592 14.345 35.4592 13.595V8.735H37.1542V13.34C37.1542 14.08 37.3392 14.65 37.7092 15.05C38.0792 15.44 38.5842 15.635 39.2242 15.635C39.8642 15.635 40.3692 15.44 40.7392 15.05C41.1192 14.65 41.3092 14.08 41.3092 13.34V8.735H43.0192ZM44.7054 12.86C44.7054 12.01 44.8754 11.265 45.2154 10.625C45.5654 9.975 46.0454 9.475 46.6554 9.125C47.2654 8.775 47.9654 8.6 48.7554 8.6C49.7554 8.6 50.5804 8.84 51.2304 9.32C51.8904 9.79 52.3354 10.465 52.5654 11.345H50.7204C50.5704 10.935 50.3304 10.615 50.0004 10.385C49.6704 10.155 49.2554 10.04 48.7554 10.04C48.0554 10.04 47.4954 10.29 47.0754 10.79C46.6654 11.28 46.4604 11.97 46.4604 12.86C46.4604 13.75 46.6654 14.445 47.0754 14.945C47.4954 15.445 48.0554 15.695 48.7554 15.695C49.7454 15.695 50.4004 15.26 50.7204 14.39H52.5654C52.3254 15.23 51.8754 15.9 51.2154 16.4C50.5554 16.89 49.7354 17.135 48.7554 17.135C47.9654 17.135 47.2654 16.96 46.6554 16.61C46.0454 16.25 45.5654 15.75 45.2154 15.11C44.8754 14.46 44.7054 13.71 44.7054 12.86ZM56.2645 10.13V14.705C56.2645 15.015 56.3345 15.24 56.4745 15.38C56.6245 15.51 56.8745 15.575 57.2245 15.575H58.2745V17H56.9245C56.1545 17 55.5645 16.82 55.1545 16.46C54.7445 16.1 54.5395 15.515 54.5395 14.705V10.13H53.5645V8.735H54.5395V6.68H56.2645V8.735H58.2745V10.13H56.2645ZM65.7421 10.13V14.705C65.7421 15.015 65.8121 15.24 65.9521 15.38C66.1021 15.51 66.3521 15.575 66.7021 15.575H67.7521V17H66.4021C65.6321 17 65.0421 16.82 64.6321 16.46C64.2221 16.1 64.0171 15.515 64.0171 14.705V10.13H63.0421V8.735H64.0171V6.68H65.7421V8.735H67.7521V10.13H65.7421ZM70.1981 7.64C69.8881 7.64 69.6281 7.535 69.4181 7.325C69.2081 7.115 69.1031 6.855 69.1031 6.545C69.1031 6.235 69.2081 5.975 69.4181 5.765C69.6281 5.555 69.8881 5.45 70.1981 5.45C70.4981 5.45 70.7531 5.555 70.9631 5.765C71.1731 5.975 71.2781 6.235 71.2781 6.545C71.2781 6.855 71.1731 7.115 70.9631 7.325C70.7531 7.535 70.4981 7.64 70.1981 7.64ZM71.0381 8.735V17H69.3281V8.735H71.0381ZM75.2782 10.13V14.705C75.2782 15.015 75.3482 15.24 75.4882 15.38C75.6382 15.51 75.8882 15.575 76.2382 15.575H77.2882V17H75.9382C75.1682 17 74.5782 16.82 74.1682 16.46C73.7582 16.1 73.5532 15.515 73.5532 14.705V10.13H72.5782V8.735H73.5532V6.68H75.2782V8.735H77.2882V10.13H75.2782ZM80.5743 5.9V17H78.8643V5.9H80.5743ZM90.3943 12.665C90.3943 12.975 90.3743 13.255 90.3343 13.505H84.0193C84.0693 14.165 84.3143 14.695 84.7543 15.095C85.1943 15.495 85.7343 15.695 86.3743 15.695C87.2943 15.695 87.9443 15.31 88.3243 14.54H90.1693C89.9193 15.3 89.4643 15.925 88.8043 16.415C88.1543 16.895 87.3443 17.135 86.3743 17.135C85.5843 17.135 84.8743 16.96 84.2443 16.61C83.6243 16.25 83.1343 15.75 82.7743 15.11C82.4243 14.46 82.2493 13.71 82.2493 12.86C82.2493 12.01 82.4193 11.265 82.7593 10.625C83.1093 9.975 83.5943 9.475 84.2143 9.125C84.8443 8.775 85.5643 8.6 86.3743 8.6C87.1543 8.6 87.8493 8.77 88.4593 9.11C89.0693 9.45 89.5443 9.93 89.8843 10.55C90.2243 11.16 90.3943 11.865 90.3943 12.665ZM88.6093 12.125C88.5993 11.495 88.3743 10.99 87.9343 10.61C87.4943 10.23 86.9493 10.04 86.2993 10.04C85.7093 10.04 85.2043 10.23 84.7843 10.61C84.3643 10.98 84.1143 11.485 84.0343 12.125H88.6093Z" fill="#151515"/>
<path d="M2.17383 40H1.17773V31.4336H5.95312V32.3184H2.17383V35.4531H5.72461V36.3379H2.17383V40ZM11.1797 40L10.9863 39.0859H10.9395C10.6191 39.4883 10.2988 39.7617 9.97852 39.9062C9.66211 40.0469 9.26562 40.1172 8.78906 40.1172C8.15234 40.1172 7.65234 39.9531 7.28906 39.625C6.92969 39.2969 6.75 38.8301 6.75 38.2246C6.75 36.9277 7.78711 36.248 9.86133 36.1855L10.9512 36.1504V35.752C10.9512 35.248 10.8418 34.877 10.623 34.6387C10.4082 34.3965 10.0625 34.2754 9.58594 34.2754C9.05078 34.2754 8.44531 34.4395 7.76953 34.7676L7.4707 34.0234C7.78711 33.8516 8.13281 33.7168 8.50781 33.6191C8.88672 33.5215 9.26562 33.4727 9.64453 33.4727C10.4102 33.4727 10.9766 33.6426 11.3438 33.9824C11.7148 34.3223 11.9004 34.8672 11.9004 35.6172V40H11.1797ZM8.98242 39.3145C9.58789 39.3145 10.0625 39.1484 10.4062 38.8164C10.7539 38.4844 10.9277 38.0195 10.9277 37.4219V36.8418L9.95508 36.8828C9.18164 36.9102 8.62305 37.0312 8.2793 37.2461C7.93945 37.457 7.76953 37.7871 7.76953 38.2363C7.76953 38.5879 7.875 38.8555 8.08594 39.0391C8.30078 39.2227 8.59961 39.3145 8.98242 39.3145ZM16.8398 33.4609C17.125 33.4609 17.3809 33.4844 17.6074 33.5312L17.4727 34.4336C17.207 34.375 16.9727 34.3457 16.7695 34.3457C16.25 34.3457 15.8047 34.5566 15.4336 34.9785C15.0664 35.4004 14.8828 35.9258 14.8828 36.5547V40H13.9102V33.5781H14.7129L14.8242 34.7676H14.8711C15.1094 34.3496 15.3965 34.0273 15.7324 33.8008C16.0684 33.5742 16.4375 33.4609 16.8398 33.4609ZM26.9941 40V35.8223C26.9941 35.3105 26.8848 34.9277 26.666 34.6738C26.4473 34.416 26.1074 34.2871 25.6465 34.2871C25.041 34.2871 24.5938 34.4609 24.3047 34.8086C24.0156 35.1562 23.8711 35.6914 23.8711 36.4141V40H22.8984V35.8223C22.8984 35.3105 22.7891 34.9277 22.5703 34.6738C22.3516 34.416 22.0098 34.2871 21.5449 34.2871C20.9355 34.2871 20.4883 34.4707 20.2031 34.8379C19.9219 35.2012 19.7812 35.7988 19.7812 36.6309V40H18.8086V33.5781H19.5996L19.7578 34.457H19.8047C19.9883 34.1445 20.2461 33.9004 20.5781 33.7246C20.9141 33.5488 21.2891 33.4609 21.7031 33.4609C22.707 33.4609 23.3633 33.8242 23.6719 34.5508H23.7188C23.9102 34.2148 24.1875 33.9492 24.5508 33.7539C24.9141 33.5586 25.3281 33.4609 25.793 33.4609C26.5195 33.4609 27.0625 33.6484 27.4219 34.0234C27.7852 34.3945 27.9668 34.9902 27.9668 35.8105V40H26.9941ZM29.8359 39.3789C29.8359 39.1172 29.8945 38.9199 30.0117 38.7871C30.1328 38.6504 30.3047 38.582 30.5273 38.582C30.7539 38.582 30.9297 38.6504 31.0547 38.7871C31.1836 38.9199 31.248 39.1172 31.248 39.3789C31.248 39.6328 31.1836 39.8281 31.0547 39.9648C30.9258 40.1016 30.75 40.1699 30.5273 40.1699C30.3281 40.1699 30.1621 40.1094 30.0293 39.9883C29.9004 39.8633 29.8359 39.6602 29.8359 39.3789ZM29.8359 34.2051C29.8359 33.6777 30.0664 33.4141 30.5273 33.4141C31.0078 33.4141 31.248 33.6777 31.248 34.2051C31.248 34.459 31.1836 34.6543 31.0547 34.791C30.9258 34.9277 30.75 34.9961 30.5273 34.9961C30.3281 34.9961 30.1621 34.9355 30.0293 34.8145C29.9004 34.6895 29.8359 34.4863 29.8359 34.2051Z" fill="#A9A9A9"/>
<path d="M77.8145 40H76.8184V32.3184H74.1055V31.4336H80.5273V32.3184H77.8145V40ZM86.0703 40V35.8457C86.0703 35.3223 85.9512 34.9316 85.7129 34.6738C85.4746 34.416 85.1016 34.2871 84.5938 34.2871C83.918 34.2871 83.4238 34.4707 83.1113 34.8379C82.8027 35.2051 82.6484 35.8066 82.6484 36.6426V40H81.6758V30.8828H82.6484V33.6426C82.6484 33.9746 82.6328 34.25 82.6016 34.4688H82.6602C82.8516 34.1602 83.123 33.918 83.4746 33.7422C83.8301 33.5625 84.2344 33.4727 84.6875 33.4727C85.4727 33.4727 86.0605 33.6602 86.4512 34.0352C86.8457 34.4062 87.043 34.998 87.043 35.8105V40H86.0703ZM92.9961 40L92.8027 39.0859H92.7559C92.4355 39.4883 92.1152 39.7617 91.7949 39.9062C91.4785 40.0469 91.082 40.1172 90.6055 40.1172C89.9688 40.1172 89.4688 39.9531 89.1055 39.625C88.7461 39.2969 88.5664 38.8301 88.5664 38.2246C88.5664 36.9277 89.6035 36.248 91.6777 36.1855L92.7676 36.1504V35.752C92.7676 35.248 92.6582 34.877 92.4395 34.6387C92.2246 34.3965 91.8789 34.2754 91.4023 34.2754C90.8672 34.2754 90.2617 34.4395 89.5859 34.7676L89.2871 34.0234C89.6035 33.8516 89.9492 33.7168 90.3242 33.6191C90.7031 33.5215 91.082 33.4727 91.4609 33.4727C92.2266 33.4727 92.793 33.6426 93.1602 33.9824C93.5312 34.3223 93.7168 34.8672 93.7168 35.6172V40H92.9961ZM90.7988 39.3145C91.4043 39.3145 91.8789 39.1484 92.2227 38.8164C92.5703 38.4844 92.7441 38.0195 92.7441 37.4219V36.8418L91.7715 36.8828C90.998 36.9102 90.4395 37.0312 90.0957 37.2461C89.7559 37.457 89.5859 37.7871 89.5859 38.2363C89.5859 38.5879 89.6914 38.8555 89.9023 39.0391C90.1172 39.2227 90.416 39.3145 90.7988 39.3145ZM98.6562 33.4609C98.9414 33.4609 99.1973 33.4844 99.4238 33.5312L99.2891 34.4336C99.0234 34.375 98.7891 34.3457 98.5859 34.3457C98.0664 34.3457 97.6211 34.5566 97.25 34.9785C96.8828 35.4004 96.6992 35.9258 96.6992 36.5547V40H95.7266V33.5781H96.5293L96.6406 34.7676H96.6875C96.9258 34.3496 97.2129 34.0273 97.5488 33.8008C97.8848 33.5742 98.2539 33.4609 98.6562 33.4609ZM104.574 40L104.381 39.0859H104.334C104.014 39.4883 103.693 39.7617 103.373 39.9062C103.057 40.0469 102.66 40.1172 102.184 40.1172C101.547 40.1172 101.047 39.9531 100.684 39.625C100.324 39.2969 100.145 38.8301 100.145 38.2246C100.145 36.9277 101.182 36.248 103.256 36.1855L104.346 36.1504V35.752C104.346 35.248 104.236 34.877 104.018 34.6387C103.803 34.3965 103.457 34.2754 102.98 34.2754C102.445 34.2754 101.84 34.4395 101.164 34.7676L100.865 34.0234C101.182 33.8516 101.527 33.7168 101.902 33.6191C102.281 33.5215 102.66 33.4727 103.039 33.4727C103.805 33.4727 104.371 33.6426 104.738 33.9824C105.109 34.3223 105.295 34.8672 105.295 35.6172V40H104.574ZM102.377 39.3145C102.982 39.3145 103.457 39.1484 103.801 38.8164C104.148 38.4844 104.322 38.0195 104.322 37.4219V36.8418L103.35 36.8828C102.576 36.9102 102.018 37.0312 101.674 37.2461C101.334 37.457 101.164 37.7871 101.164 38.2363C101.164 38.5879 101.27 38.8555 101.48 39.0391C101.695 39.2227 101.994 39.3145 102.377 39.3145ZM115.49 40V35.8223C115.49 35.3105 115.381 34.9277 115.162 34.6738C114.943 34.416 114.604 34.2871 114.143 34.2871C113.537 34.2871 113.09 34.4609 112.801 34.8086C112.512 35.1562 112.367 35.6914 112.367 36.4141V40H111.395V35.8223C111.395 35.3105 111.285 34.9277 111.066 34.6738C110.848 34.416 110.506 34.2871 110.041 34.2871C109.432 34.2871 108.984 34.4707 108.699 34.8379C108.418 35.2012 108.277 35.7988 108.277 36.6309V40H107.305V33.5781H108.096L108.254 34.457H108.301C108.484 34.1445 108.742 33.9004 109.074 33.7246C109.41 33.5488 109.785 33.4609 110.199 33.4609C111.203 33.4609 111.859 33.8242 112.168 34.5508H112.215C112.406 34.2148 112.684 33.9492 113.047 33.7539C113.41 33.5586 113.824 33.4609 114.289 33.4609C115.016 33.4609 115.559 33.6484 115.918 34.0234C116.281 34.3945 116.463 34.9902 116.463 35.8105V40H115.49ZM119.445 40H118.473V33.5781H119.445V40ZM118.391 31.8379C118.391 31.6152 118.445 31.4531 118.555 31.3516C118.664 31.2461 118.801 31.1934 118.965 31.1934C119.121 31.1934 119.256 31.2461 119.369 31.3516C119.482 31.457 119.539 31.6191 119.539 31.8379C119.539 32.0566 119.482 32.2207 119.369 32.3301C119.256 32.4355 119.121 32.4883 118.965 32.4883C118.801 32.4883 118.664 32.4355 118.555 32.3301C118.445 32.2207 118.391 32.0566 118.391 31.8379ZM125.65 38.248C125.65 38.8457 125.428 39.3066 124.982 39.6309C124.537 39.9551 123.912 40.1172 123.107 40.1172C122.256 40.1172 121.592 39.9824 121.115 39.7129V38.8105C121.424 38.9668 121.754 39.0898 122.105 39.1797C122.461 39.2695 122.803 39.3145 123.131 39.3145C123.639 39.3145 124.029 39.2344 124.303 39.0742C124.576 38.9102 124.713 38.6621 124.713 38.3301C124.713 38.0801 124.604 37.8672 124.385 37.6914C124.17 37.5117 123.748 37.3008 123.119 37.0586C122.521 36.8359 122.096 36.6426 121.842 36.4785C121.592 36.3105 121.404 36.1211 121.279 35.9102C121.158 35.6992 121.098 35.4473 121.098 35.1543C121.098 34.6309 121.311 34.2188 121.736 33.918C122.162 33.6133 122.746 33.4609 123.488 33.4609C124.18 33.4609 124.855 33.6016 125.516 33.8828L125.17 34.6738C124.525 34.4082 123.941 34.2754 123.418 34.2754C122.957 34.2754 122.609 34.3477 122.375 34.4922C122.141 34.6367 122.023 34.8359 122.023 35.0898C122.023 35.2617 122.066 35.4082 122.152 35.5293C122.242 35.6504 122.385 35.7656 122.58 35.875C122.775 35.9844 123.15 36.1426 123.705 36.3496C124.467 36.627 124.98 36.9062 125.246 37.1875C125.516 37.4688 125.65 37.8223 125.65 38.248ZM131.498 40H130.502V31.4336H135.277V32.3184H131.498V35.4531H135.049V36.3379H131.498V40ZM140.504 40L140.311 39.0859H140.264C139.943 39.4883 139.623 39.7617 139.303 39.9062C138.986 40.0469 138.59 40.1172 138.113 40.1172C137.477 40.1172 136.977 39.9531 136.613 39.625C136.254 39.2969 136.074 38.8301 136.074 38.2246C136.074 36.9277 137.111 36.248 139.186 36.1855L140.275 36.1504V35.752C140.275 35.248 140.166 34.877 139.947 34.6387C139.732 34.3965 139.387 34.2754 138.91 34.2754C138.375 34.2754 137.77 34.4395 137.094 34.7676L136.795 34.0234C137.111 33.8516 137.457 33.7168 137.832 33.6191C138.211 33.5215 138.59 33.4727 138.969 33.4727C139.734 33.4727 140.301 33.6426 140.668 33.9824C141.039 34.3223 141.225 34.8672 141.225 35.6172V40H140.504ZM138.307 39.3145C138.912 39.3145 139.387 39.1484 139.73 38.8164C140.078 38.4844 140.252 38.0195 140.252 37.4219V36.8418L139.279 36.8828C138.506 36.9102 137.947 37.0312 137.604 37.2461C137.264 37.457 137.094 37.7871 137.094 38.2363C137.094 38.5879 137.199 38.8555 137.41 39.0391C137.625 39.2227 137.924 39.3145 138.307 39.3145ZM146.164 33.4609C146.449 33.4609 146.705 33.4844 146.932 33.5312L146.797 34.4336C146.531 34.375 146.297 34.3457 146.094 34.3457C145.574 34.3457 145.129 34.5566 144.758 34.9785C144.391 35.4004 144.207 35.9258 144.207 36.5547V40H143.234V33.5781H144.037L144.148 34.7676H144.195C144.434 34.3496 144.721 34.0273 145.057 33.8008C145.393 33.5742 145.762 33.4609 146.164 33.4609ZM156.318 40V35.8223C156.318 35.3105 156.209 34.9277 155.99 34.6738C155.771 34.416 155.432 34.2871 154.971 34.2871C154.365 34.2871 153.918 34.4609 153.629 34.8086C153.34 35.1562 153.195 35.6914 153.195 36.4141V40H152.223V35.8223C152.223 35.3105 152.113 34.9277 151.895 34.6738C151.676 34.416 151.334 34.2871 150.869 34.2871C150.26 34.2871 149.812 34.4707 149.527 34.8379C149.246 35.2012 149.105 35.7988 149.105 36.6309V40H148.133V33.5781H148.924L149.082 34.457H149.129C149.312 34.1445 149.57 33.9004 149.902 33.7246C150.238 33.5488 150.613 33.4609 151.027 33.4609C152.031 33.4609 152.688 33.8242 152.996 34.5508H153.043C153.234 34.2148 153.512 33.9492 153.875 33.7539C154.238 33.5586 154.652 33.4609 155.117 33.4609C155.844 33.4609 156.387 33.6484 156.746 34.0234C157.109 34.3945 157.291 34.9902 157.291 35.8105V40H156.318Z" fill="#151515"/>
<path d="M2.17383 63H1.17773V54.4336H5.95312V55.3184H2.17383V58.4531H5.72461V59.3379H2.17383V63ZM10.1602 56.4609C10.4453 56.4609 10.7012 56.4844 10.9277 56.5312L10.793 57.4336C10.5273 57.375 10.293 57.3457 10.0898 57.3457C9.57031 57.3457 9.125 57.5566 8.75391 57.9785C8.38672 58.4004 8.20312 58.9258 8.20312 59.5547V63H7.23047V56.5781H8.0332L8.14453 57.7676H8.19141C8.42969 57.3496 8.7168 57.0273 9.05273 56.8008C9.38867 56.5742 9.75781 56.4609 10.1602 56.4609ZM14.8418 63.1172C13.8926 63.1172 13.1426 62.8281 12.5918 62.25C12.0449 61.6719 11.7715 60.8691 11.7715 59.8418C11.7715 58.8066 12.0254 57.9844 12.5332 57.375C13.0449 56.7656 13.7305 56.4609 14.5898 56.4609C15.3945 56.4609 16.0312 56.7266 16.5 57.2578C16.9688 57.7852 17.2031 58.4824 17.2031 59.3496V59.9648H12.7793C12.7988 60.7188 12.9883 61.291 13.3477 61.6816C13.7109 62.0723 14.2207 62.2676 14.877 62.2676C15.5684 62.2676 16.252 62.123 16.9277 61.834V62.7012C16.584 62.8496 16.2578 62.9551 15.9492 63.0176C15.6445 63.084 15.2754 63.1172 14.8418 63.1172ZM14.5781 57.2754C14.0625 57.2754 13.6504 57.4434 13.3418 57.7793C13.0371 58.1152 12.8574 58.5801 12.8027 59.1738H16.1602C16.1602 58.5605 16.0234 58.0918 15.75 57.7676C15.4766 57.4395 15.0859 57.2754 14.5781 57.2754ZM23.0098 61.248C23.0098 61.8457 22.7871 62.3066 22.3418 62.6309C21.8965 62.9551 21.2715 63.1172 20.4668 63.1172C19.6152 63.1172 18.9512 62.9824 18.4746 62.7129V61.8105C18.7832 61.9668 19.1133 62.0898 19.4648 62.1797C19.8203 62.2695 20.1621 62.3145 20.4902 62.3145C20.998 62.3145 21.3887 62.2344 21.6621 62.0742C21.9355 61.9102 22.0723 61.6621 22.0723 61.3301C22.0723 61.0801 21.9629 60.8672 21.7441 60.6914C21.5293 60.5117 21.1074 60.3008 20.4785 60.0586C19.8809 59.8359 19.4551 59.6426 19.2012 59.4785C18.9512 59.3105 18.7637 59.1211 18.6387 58.9102C18.5176 58.6992 18.457 58.4473 18.457 58.1543C18.457 57.6309 18.6699 57.2188 19.0957 56.918C19.5215 56.6133 20.1055 56.4609 20.8477 56.4609C21.5391 56.4609 22.2148 56.6016 22.875 56.8828L22.5293 57.6738C21.8848 57.4082 21.3008 57.2754 20.7773 57.2754C20.3164 57.2754 19.9688 57.3477 19.7344 57.4922C19.5 57.6367 19.3828 57.8359 19.3828 58.0898C19.3828 58.2617 19.4258 58.4082 19.5117 58.5293C19.6016 58.6504 19.7441 58.7656 19.9395 58.875C20.1348 58.9844 20.5098 59.1426 21.0645 59.3496C21.8262 59.627 22.3398 59.9062 22.6055 60.1875C22.875 60.4688 23.0098 60.8223 23.0098 61.248ZM28.9922 63V58.8457C28.9922 58.3223 28.873 57.9316 28.6348 57.6738C28.3965 57.416 28.0234 57.2871 27.5156 57.2871C26.8398 57.2871 26.3457 57.4707 26.0332 57.8379C25.7246 58.2051 25.5703 58.8066 25.5703 59.6426V63H24.5977V53.8828H25.5703V56.6426C25.5703 56.9746 25.5547 57.25 25.5234 57.4688H25.582C25.7734 57.1602 26.0449 56.918 26.3965 56.7422C26.752 56.5625 27.1562 56.4727 27.6094 56.4727C28.3945 56.4727 28.9824 56.6602 29.373 57.0352C29.7676 57.4062 29.9648 57.998 29.9648 58.8105V63H28.9922ZM36.3633 63V58.8457C36.3633 58.3223 36.2441 57.9316 36.0059 57.6738C35.7676 57.416 35.3945 57.2871 34.8867 57.2871C34.2148 57.2871 33.7227 57.4688 33.4102 57.832C33.0977 58.1953 32.9414 58.7949 32.9414 59.6309V63H31.9688V56.5781H32.7598L32.918 57.457H32.9648C33.1641 57.1406 33.4434 56.8965 33.8027 56.7246C34.1621 56.5488 34.5625 56.4609 35.0039 56.4609C35.7773 56.4609 36.3594 56.6484 36.75 57.0234C37.1406 57.3945 37.3359 57.9902 37.3359 58.8105V63H36.3633ZM42.0527 63.1172C41.1035 63.1172 40.3535 62.8281 39.8027 62.25C39.2559 61.6719 38.9824 60.8691 38.9824 59.8418C38.9824 58.8066 39.2363 57.9844 39.7441 57.375C40.2559 56.7656 40.9414 56.4609 41.8008 56.4609C42.6055 56.4609 43.2422 56.7266 43.7109 57.2578C44.1797 57.7852 44.4141 58.4824 44.4141 59.3496V59.9648H39.9902C40.0098 60.7188 40.1992 61.291 40.5586 61.6816C40.9219 62.0723 41.4316 62.2676 42.0879 62.2676C42.7793 62.2676 43.4629 62.123 44.1387 61.834V62.7012C43.7949 62.8496 43.4688 62.9551 43.1602 63.0176C42.8555 63.084 42.4863 63.1172 42.0527 63.1172ZM41.7891 57.2754C41.2734 57.2754 40.8613 57.4434 40.5527 57.7793C40.248 58.1152 40.0684 58.5801 40.0137 59.1738H43.3711C43.3711 58.5605 43.2344 58.0918 42.9609 57.7676C42.6875 57.4395 42.2969 57.2754 41.7891 57.2754ZM50.2207 61.248C50.2207 61.8457 49.998 62.3066 49.5527 62.6309C49.1074 62.9551 48.4824 63.1172 47.6777 63.1172C46.8262 63.1172 46.1621 62.9824 45.6855 62.7129V61.8105C45.9941 61.9668 46.3242 62.0898 46.6758 62.1797C47.0312 62.2695 47.373 62.3145 47.7012 62.3145C48.209 62.3145 48.5996 62.2344 48.873 62.0742C49.1465 61.9102 49.2832 61.6621 49.2832 61.3301C49.2832 61.0801 49.1738 60.8672 48.9551 60.6914C48.7402 60.5117 48.3184 60.3008 47.6895 60.0586C47.0918 59.8359 46.666 59.6426 46.4121 59.4785C46.1621 59.3105 45.9746 59.1211 45.8496 58.9102C45.7285 58.6992 45.668 58.4473 45.668 58.1543C45.668 57.6309 45.8809 57.2188 46.3066 56.918C46.7324 56.6133 47.3164 56.4609 48.0586 56.4609C48.75 56.4609 49.4258 56.6016 50.0859 56.8828L49.7402 57.6738C49.0957 57.4082 48.5117 57.2754 47.9883 57.2754C47.5273 57.2754 47.1797 57.3477 46.9453 57.4922C46.7109 57.6367 46.5938 57.8359 46.5938 58.0898C46.5938 58.2617 46.6367 58.4082 46.7227 58.5293C46.8125 58.6504 46.9551 58.7656 47.1504 58.875C47.3457 58.9844 47.7207 59.1426 48.2754 59.3496C49.0371 59.627 49.5508 59.9062 49.8164 60.1875C50.0859 60.4688 50.2207 60.8223 50.2207 61.248ZM55.9512 61.248C55.9512 61.8457 55.7285 62.3066 55.2832 62.6309C54.8379 62.9551 54.2129 63.1172 53.4082 63.1172C52.5566 63.1172 51.8926 62.9824 51.416 62.7129V61.8105C51.7246 61.9668 52.0547 62.0898 52.4062 62.1797C52.7617 62.2695 53.1035 62.3145 53.4316 62.3145C53.9395 62.3145 54.3301 62.2344 54.6035 62.0742C54.877 61.9102 55.0137 61.6621 55.0137 61.3301C55.0137 61.0801 54.9043 60.8672 54.6855 60.6914C54.4707 60.5117 54.0488 60.3008 53.4199 60.0586C52.8223 59.8359 52.3965 59.6426 52.1426 59.4785C51.8926 59.3105 51.7051 59.1211 51.5801 58.9102C51.459 58.6992 51.3984 58.4473 51.3984 58.1543C51.3984 57.6309 51.6113 57.2188 52.0371 56.918C52.4629 56.6133 53.0469 56.4609 53.7891 56.4609C54.4805 56.4609 55.1562 56.6016 55.8164 56.8828L55.4707 57.6738C54.8262 57.4082 54.2422 57.2754 53.7188 57.2754C53.2578 57.2754 52.9102 57.3477 52.6758 57.4922C52.4414 57.6367 52.3242 57.8359 52.3242 58.0898C52.3242 58.2617 52.3672 58.4082 52.4531 58.5293C52.543 58.6504 52.6855 58.7656 52.8809 58.875C53.0762 58.9844 53.4512 59.1426 54.0059 59.3496C54.7676 59.627 55.2812 59.9062 55.5469 60.1875C55.8164 60.4688 55.9512 60.8223 55.9512 61.248ZM57.3984 62.3789C57.3984 62.1172 57.457 61.9199 57.5742 61.7871C57.6953 61.6504 57.8672 61.582 58.0898 61.582C58.3164 61.582 58.4922 61.6504 58.6172 61.7871C58.7461 61.9199 58.8105 62.1172 58.8105 62.3789C58.8105 62.6328 58.7461 62.8281 58.6172 62.9648C58.4883 63.1016 58.3125 63.1699 58.0898 63.1699C57.8906 63.1699 57.7246 63.1094 57.5918 62.9883C57.4629 62.8633 57.3984 62.6602 57.3984 62.3789ZM57.3984 57.2051C57.3984 56.6777 57.6289 56.4141 58.0898 56.4141C58.5703 56.4141 58.8105 56.6777 58.8105 57.2051C58.8105 57.459 58.7461 57.6543 58.6172 57.791C58.4883 57.9277 58.3125 57.9961 58.0898 57.9961C57.8906 57.9961 57.7246 57.9355 57.5918 57.8145C57.4629 57.6895 57.3984 57.4863 57.3984 57.2051Z" fill="#A9A9A9"/>
<path d="M78.1895 63H77.2402V56.8945C77.2402 56.3867 77.2559 55.9062 77.2871 55.4531C77.2051 55.5352 77.1133 55.6211 77.0117 55.7109C76.9102 55.8008 76.4453 56.1816 75.6172 56.8535L75.1016 56.1855L77.3691 54.4336H78.1895V63ZM89.3867 62.1387H89.334C88.8848 62.791 88.2129 63.1172 87.3184 63.1172C86.4785 63.1172 85.8242 62.8301 85.3555 62.2559C84.8906 61.6816 84.6582 60.8652 84.6582 59.8066C84.6582 58.748 84.8926 57.9258 85.3613 57.3398C85.8301 56.7539 86.4824 56.4609 87.3184 56.4609C88.1895 56.4609 88.8574 56.7773 89.3223 57.4102H89.3984L89.3574 56.9473L89.334 56.4961V53.8828H90.3066V63H89.5156L89.3867 62.1387ZM87.4414 62.3027C88.1055 62.3027 88.5859 62.123 88.8828 61.7637C89.1836 61.4004 89.334 60.8164 89.334 60.0117V59.8066C89.334 58.8965 89.1816 58.248 88.877 57.8613C88.5762 57.4707 88.0938 57.2754 87.4297 57.2754C86.8594 57.2754 86.4219 57.498 86.1172 57.9434C85.8164 58.3848 85.666 59.0098 85.666 59.8184C85.666 60.6387 85.8164 61.2578 86.1172 61.6758C86.418 62.0938 86.8594 62.3027 87.4414 62.3027ZM96.3242 63L96.1309 62.0859H96.084C95.7637 62.4883 95.4434 62.7617 95.123 62.9062C94.8066 63.0469 94.4102 63.1172 93.9336 63.1172C93.2969 63.1172 92.7969 62.9531 92.4336 62.625C92.0742 62.2969 91.8945 61.8301 91.8945 61.2246C91.8945 59.9277 92.9316 59.248 95.0059 59.1855L96.0957 59.1504V58.752C96.0957 58.248 95.9863 57.877 95.7676 57.6387C95.5527 57.3965 95.207 57.2754 94.7305 57.2754C94.1953 57.2754 93.5898 57.4395 92.9141 57.7676L92.6152 57.0234C92.9316 56.8516 93.2773 56.7168 93.6523 56.6191C94.0312 56.5215 94.4102 56.4727 94.7891 56.4727C95.5547 56.4727 96.1211 56.6426 96.4883 56.9824C96.8594 57.3223 97.0449 57.8672 97.0449 58.6172V63H96.3242ZM94.127 62.3145C94.7324 62.3145 95.207 62.1484 95.5508 61.8164C95.8984 61.4844 96.0723 61.0195 96.0723 60.4219V59.8418L95.0996 59.8828C94.3262 59.9102 93.7676 60.0312 93.4238 60.2461C93.084 60.457 92.9141 60.7871 92.9141 61.2363C92.9141 61.5879 93.0195 61.8555 93.2305 62.0391C93.4453 62.2227 93.7441 62.3145 94.127 62.3145ZM98.0352 56.5781H99.0781L100.484 60.2402C100.793 61.0762 100.984 61.6797 101.059 62.0508H101.105C101.156 61.8516 101.262 61.5117 101.422 61.0312C101.586 60.5469 102.117 59.0625 103.016 56.5781H104.059L101.299 63.8906C101.025 64.6133 100.705 65.125 100.338 65.4258C99.9746 65.7305 99.5273 65.8828 98.9961 65.8828C98.6992 65.8828 98.4062 65.8496 98.1172 65.7832V65.0039C98.332 65.0508 98.5723 65.0742 98.8379 65.0742C99.5059 65.0742 99.9824 64.6992 100.268 63.9492L100.625 63.0352L98.0352 56.5781ZM113.762 59.7832C113.762 60.8301 113.498 61.6484 112.971 62.2383C112.443 62.8242 111.715 63.1172 110.785 63.1172C110.211 63.1172 109.701 62.9824 109.256 62.7129C108.811 62.4434 108.467 62.0566 108.225 61.5527C107.982 61.0488 107.861 60.459 107.861 59.7832C107.861 58.7363 108.123 57.9219 108.646 57.3398C109.17 56.7539 109.896 56.4609 110.826 56.4609C111.725 56.4609 112.438 56.7598 112.965 57.3574C113.496 57.9551 113.762 58.7637 113.762 59.7832ZM108.869 59.7832C108.869 60.6035 109.033 61.2285 109.361 61.6582C109.689 62.0879 110.172 62.3027 110.809 62.3027C111.445 62.3027 111.928 62.0898 112.256 61.6641C112.588 61.2344 112.754 60.6074 112.754 59.7832C112.754 58.9668 112.588 58.3477 112.256 57.9258C111.928 57.5 111.441 57.2871 110.797 57.2871C110.16 57.2871 109.68 57.4961 109.355 57.9141C109.031 58.332 108.869 58.9551 108.869 59.7832ZM116.445 63H115.473V53.8828H116.445V63ZM122.879 62.1387H122.826C122.377 62.791 121.705 63.1172 120.811 63.1172C119.971 63.1172 119.316 62.8301 118.848 62.2559C118.383 61.6816 118.15 60.8652 118.15 59.8066C118.15 58.748 118.385 57.9258 118.854 57.3398C119.322 56.7539 119.975 56.4609 120.811 56.4609C121.682 56.4609 122.35 56.7773 122.814 57.4102H122.891L122.85 56.9473L122.826 56.4961V53.8828H123.799V63H123.008L122.879 62.1387ZM120.934 62.3027C121.598 62.3027 122.078 62.123 122.375 61.7637C122.676 61.4004 122.826 60.8164 122.826 60.0117V59.8066C122.826 58.8965 122.674 58.248 122.369 57.8613C122.068 57.4707 121.586 57.2754 120.922 57.2754C120.352 57.2754 119.914 57.498 119.609 57.9434C119.309 58.3848 119.158 59.0098 119.158 59.8184C119.158 60.6387 119.309 61.2578 119.609 61.6758C119.91 62.0938 120.352 62.3027 120.934 62.3027Z" fill="#151515"/>
</g>
<g clip-path="url(#clip5_6737_26162)">
<path fill-rule="evenodd" clip-rule="evenodd" d="M7.3341 79.1266C7.38015 78.9806 7.47155 78.853 7.59503 78.7625C7.71851 78.672 7.86764 78.6232 8.02076 78.6232C8.17388 78.6232 8.32301 78.672 8.44649 78.7625C8.56997 78.853 8.66138 78.9806 8.70743 79.1266L9.94743 82.9399H13.9474C14.106 82.934 14.2622 82.98 14.3921 83.0712C14.5221 83.1623 14.6186 83.2935 14.667 83.4446C14.7153 83.5958 14.7129 83.7586 14.66 83.9083C14.6071 84.0579 14.5067 84.1861 14.3741 84.2733L11.1274 86.6266L12.3674 90.4466C12.4165 90.5921 12.4177 90.7495 12.371 90.8958C12.3242 91.042 12.2319 91.1695 12.1076 91.2596C11.9832 91.3497 11.8333 91.3977 11.6798 91.3965C11.5263 91.3954 11.3771 91.3452 11.2541 91.2533L8.00076 88.8733L4.7541 91.2333C4.6311 91.3252 4.48194 91.3754 4.32839 91.3765C4.17484 91.3777 4.02495 91.3297 3.90061 91.2396C3.77627 91.1495 3.68398 91.022 3.63723 90.8758C3.59049 90.7295 3.59172 90.5721 3.64076 90.4266L4.88076 86.6066L1.6341 84.2533C1.50148 84.1661 1.40106 84.0379 1.34818 83.8883C1.29529 83.7386 1.29284 83.5758 1.34121 83.4246C1.38958 83.2735 1.48611 83.1423 1.61604 83.0512C1.74597 82.96 1.90217 82.914 2.06076 82.9199H6.06076L7.3341 79.1266Z" fill="#FDBC15"/>
<path fill-rule="evenodd" clip-rule="evenodd" d="M25.3341 79.1266C25.3801 78.9806 25.4715 78.853 25.595 78.7625C25.7185 78.672 25.8676 78.6232 26.0208 78.6232C26.1739 78.6232 26.323 78.672 26.4465 78.7625C26.57 78.853 26.6614 78.9806 26.7074 79.1266L27.9474 82.9399H31.9474C32.106 82.934 32.2622 82.98 32.3921 83.0712C32.5221 83.1623 32.6186 83.2935 32.667 83.4446C32.7153 83.5958 32.7129 83.7586 32.66 83.9083C32.6071 84.0579 32.5067 84.1861 32.3741 84.2733L29.1274 86.6266L30.3674 90.4466C30.4165 90.5921 30.4177 90.7495 30.371 90.8958C30.3242 91.042 30.2319 91.1695 30.1076 91.2596C29.9832 91.3497 29.8333 91.3977 29.6798 91.3965C29.5263 91.3954 29.3771 91.3452 29.2541 91.2533L26.0008 88.8733L22.7541 91.2333C22.6311 91.3252 22.4819 91.3754 22.3284 91.3765C22.1748 91.3777 22.025 91.3297 21.9006 91.2396C21.7763 91.1495 21.684 91.022 21.6372 90.8758C21.5905 90.7295 21.5917 90.5721 21.6408 90.4266L22.8808 86.6066L19.6341 84.2533C19.5015 84.1661 19.4011 84.0379 19.3482 83.8883C19.2953 83.7386 19.2928 83.5758 19.3412 83.4246C19.3896 83.2735 19.4861 83.1423 19.616 83.0512C19.746 82.96 19.9022 82.914 20.0608 82.9199H24.0608L25.3341 79.1266Z" fill="#FDBC15"/>
<path fill-rule="evenodd" clip-rule="evenodd" d="M43.3341 79.1266C43.3801 78.9806 43.4715 78.853 43.595 78.7625C43.7185 78.672 43.8676 78.6232 44.0208 78.6232C44.1739 78.6232 44.323 78.672 44.4465 78.7625C44.57 78.853 44.6614 78.9806 44.7074 79.1266L45.9474 82.9399H49.9474C50.106 82.934 50.2622 82.98 50.3921 83.0712C50.5221 83.1623 50.6186 83.2935 50.667 83.4446C50.7153 83.5958 50.7129 83.7586 50.66 83.9083C50.6071 84.0579 50.5067 84.1861 50.3741 84.2733L47.1274 86.6266L48.3674 90.4466C48.4165 90.5921 48.4177 90.7495 48.371 90.8958C48.3242 91.042 48.2319 91.1695 48.1076 91.2596C47.9832 91.3497 47.8333 91.3977 47.6798 91.3965C47.5263 91.3954 47.3771 91.3452 47.2541 91.2533L44.0008 88.8733L40.7541 91.2333C40.6311 91.3252 40.4819 91.3754 40.3284 91.3765C40.1748 91.3777 40.025 91.3297 39.9006 91.2396C39.7763 91.1495 39.684 91.022 39.6372 90.8758C39.5905 90.7295 39.5917 90.5721 39.6408 90.4266L40.8808 86.6066L37.6341 84.2533C37.5015 84.1661 37.4011 84.0379 37.3482 83.8883C37.2953 83.7386 37.2928 83.5758 37.3412 83.4246C37.3896 83.2735 37.4861 83.1423 37.616 83.0512C37.746 82.96 37.9022 82.914 38.0608 82.9199H42.0608L43.3341 79.1266Z" fill="#FDBC15"/>
<path fill-rule="evenodd" clip-rule="evenodd" d="M61.3341 79.1266C61.3801 78.9806 61.4715 78.853 61.595 78.7625C61.7185 78.672 61.8676 78.6232 62.0208 78.6232C62.1739 78.6232 62.323 78.672 62.4465 78.7625C62.57 78.853 62.6614 78.9806 62.7074 79.1266L63.9474 82.9399H67.9474C68.106 82.934 68.2622 82.98 68.3921 83.0712C68.5221 83.1623 68.6186 83.2935 68.667 83.4446C68.7153 83.5958 68.7129 83.7586 68.66 83.9083C68.6071 84.0579 68.5067 84.1861 68.3741 84.2733L65.1274 86.6266L66.3674 90.4466C66.4165 90.5921 66.4177 90.7495 66.371 90.8958C66.3242 91.042 66.2319 91.1695 66.1076 91.2596C65.9832 91.3497 65.8333 91.3977 65.6798 91.3965C65.5263 91.3954 65.3771 91.3452 65.2541 91.2533L62.0008 88.8733L58.7541 91.2333C58.6311 91.3252 58.4819 91.3754 58.3284 91.3765C58.1748 91.3777 58.025 91.3297 57.9006 91.2396C57.7763 91.1495 57.684 91.022 57.6372 90.8758C57.5905 90.7295 57.5917 90.5721 57.6408 90.4266L58.8808 86.6066L55.6341 84.2533C55.5015 84.1661 55.4011 84.0379 55.3482 83.8883C55.2953 83.7386 55.2928 83.5758 55.3412 83.4246C55.3896 83.2735 55.4861 83.1423 55.616 83.0512C55.746 82.96 55.9022 82.914 56.0608 82.9199H60.0608L61.3341 79.1266Z" fill="#FDBC15"/>
<g clip-path="url(#clip6_6737_26162)">
<path fill-rule="evenodd" clip-rule="evenodd" d="M79.3341 79.1266C79.3801 78.9806 79.4715 78.853 79.595 78.7625C79.7185 78.672 79.8676 78.6232 80.0208 78.6232C80.1739 78.6232 80.323 78.672 80.4465 78.7625C80.57 78.853 80.6614 78.9806 80.7074 79.1266L81.9474 82.9399H85.9474C86.106 82.934 86.2622 82.98 86.3921 83.0712C86.5221 83.1623 86.6186 83.2935 86.667 83.4446C86.7153 83.5958 86.7129 83.7586 86.66 83.9083C86.6071 84.0579 86.5067 84.1861 86.3741 84.2733L83.1274 86.6266L84.3674 90.4466C84.4165 90.5921 84.4177 90.7495 84.371 90.8958C84.3242 91.042 84.2319 91.1695 84.1076 91.2596C83.9832 91.3497 83.8333 91.3977 83.6798 91.3965C83.5263 91.3954 83.3771 91.3452 83.2541 91.2533L80.0008 88.8733L76.7541 91.2333C76.6311 91.3252 76.4819 91.3754 76.3284 91.3765C76.1748 91.3777 76.025 91.3297 75.9006 91.2396C75.7763 91.1495 75.684 91.022 75.6372 90.8758C75.5905 90.7295 75.5917 90.5721 75.6408 90.4266L76.8808 86.6066L73.6341 84.2533C73.5015 84.1661 73.4011 84.0379 73.3482 83.8883C73.2953 83.7386 73.2928 83.5758 73.3412 83.4246C73.3896 83.2735 73.4861 83.1423 73.616 83.0512C73.746 82.96 73.9022 82.914 74.0608 82.9199H78.0608L79.3341 79.1266Z" stroke="#EBEBEB" stroke-width="1.5" stroke-linecap="round" stroke-linejoin="round"/>
</g>
</g>
</g>
</g>
</g>
<g clip-path="url(#clip7_6737_26162)">
<path d="M0.99 119.334H3.456C3.546 118.506 4.068 117.714 5.292 117.714C6.444 117.714 7.074 118.326 7.074 119.352C7.074 120.648 5.994 121.062 4.518 121.062H3.996V123.132H4.518C6.39 123.132 7.326 123.672 7.326 125.148C7.326 126.192 6.678 126.984 5.418 126.984C4.068 126.984 3.312 126.174 3.258 125.04H0.81C0.918 127.794 2.88 129.09 5.472 129.09C8.226 129.09 9.738 127.506 9.738 125.364C9.738 123.582 8.856 122.502 7.524 122.088V122.016C8.478 121.692 9.504 120.684 9.504 119.046C9.504 117.102 8.064 115.572 5.364 115.572C2.844 115.572 1.116 116.904 0.99 119.334ZM20.8734 119.154C20.6754 117.3 19.4154 115.572 16.7334 115.572C13.4034 115.572 12.0174 117.948 12.0174 122.232C12.0174 126.3 12.9894 129.036 16.8774 129.036C19.6854 129.036 21.2514 127.182 21.2514 124.644C21.2514 121.908 19.6134 120.36 17.2734 120.36C15.9954 120.36 14.8074 120.9 14.2134 121.89C14.2494 118.866 15.0054 117.642 16.6434 117.642C17.7774 117.642 18.2994 118.182 18.5334 119.154H20.8734ZM16.6974 122.43C18.1554 122.43 18.8574 123.348 18.8574 124.698C18.8574 126.048 18.0474 126.894 16.7514 126.894C15.2754 126.894 14.4474 126.012 14.4474 124.608C14.4474 123.114 15.5274 122.43 16.6974 122.43ZM26.1771 127.65C26.1771 126.822 25.5291 126.174 24.6471 126.174C23.7291 126.174 23.0811 126.822 23.0811 127.65C23.0811 128.478 23.7291 129.126 24.6471 129.126C25.5291 129.126 26.1771 128.478 26.1771 127.65ZM28.4948 125.31C28.6388 127.236 29.9708 129.018 32.7608 129.018C36.2348 129.018 37.2248 126.606 37.2248 122.142C37.2248 117.984 36.1268 115.572 32.5628 115.572C29.7908 115.572 28.1348 117.3 28.1348 119.928C28.1348 122.7 29.9528 124.122 32.2208 124.122C33.3728 124.122 34.4348 123.672 34.9928 122.898C34.9928 125.85 34.3448 126.948 32.8688 126.948C31.6988 126.948 31.0328 126.354 30.8348 125.31H28.4948ZM32.7428 122.07C31.2128 122.07 30.5468 121.098 30.5468 119.91C30.5468 118.596 31.3388 117.714 32.6528 117.714C33.9308 117.714 34.7588 118.506 34.7588 119.946C34.7588 121.224 34.0028 122.07 32.7428 122.07ZM39.7624 125.31C39.9064 127.236 41.2384 129.018 44.0284 129.018C47.5024 129.018 48.4924 126.606 48.4924 122.142C48.4924 117.984 47.3944 115.572 43.8304 115.572C41.0584 115.572 39.4024 117.3 39.4024 119.928C39.4024 122.7 41.2204 124.122 43.4884 124.122C44.6404 124.122 45.7024 123.672 46.2604 122.898C46.2604 125.85 45.6124 126.948 44.1364 126.948C42.9664 126.948 42.3004 126.354 42.1024 125.31H39.7624ZM44.0104 122.07C42.4804 122.07 41.8144 121.098 41.8144 119.91C41.8144 118.596 42.6064 117.714 43.9204 117.714C45.1984 117.714 46.0264 118.506 46.0264 119.946C46.0264 121.224 45.2704 122.07 44.0104 122.07ZM54.9951 124.194C54.9951 127.506 57.2631 129.126 60.0171 129.126C62.7711 129.126 65.1471 127.506 65.1471 124.194V116.436H62.6091V124.212C62.6091 125.94 61.6731 126.84 60.0531 126.84C58.4511 126.84 57.5151 125.94 57.5151 124.212V116.436H54.9951V124.194ZM76.3658 125.364C76.3658 120.936 69.9218 122.34 69.9218 119.82C69.9218 118.794 70.6598 118.308 71.6498 118.344C72.7298 118.362 73.3958 119.01 73.4498 119.838H76.2218C76.0598 117.57 74.2958 116.256 71.7218 116.256C69.1298 116.256 67.2938 117.624 67.2938 119.892C67.2758 124.446 73.7558 122.808 73.7558 125.526C73.7558 126.426 73.0538 127.056 71.8658 127.056C70.6958 127.056 70.0298 126.39 69.9578 125.382H67.2578C67.2938 127.758 69.3098 129.126 71.9198 129.126C74.7818 129.126 76.3658 127.344 76.3658 125.364ZM82.9426 116.436H78.5506V129H82.9426C86.9566 129 89.5666 126.534 89.5666 122.736C89.5666 118.92 86.9566 116.436 82.9426 116.436ZM81.0706 126.858V118.56H82.8526C85.4986 118.56 86.9926 120.126 86.9926 122.736C86.9926 125.346 85.4986 126.858 82.8526 126.858H81.0706Z" fill="#6A983C"/>
<path d="M4.764 149H6.444V147.296H7.5V145.832H6.444V140.36H4.488L0.564 145.976V147.296H4.764V149ZM2.412 145.832L4.872 142.16V145.832H2.412ZM10.0336 144.368C9.16959 144.728 8.62959 145.484 8.62959 146.516C8.62959 148.184 9.99759 149.192 11.7856 149.192C13.5856 149.192 14.9536 148.184 14.9536 146.516C14.9536 145.496 14.4136 144.74 13.5496 144.368C14.2336 144.02 14.7376 143.36 14.7376 142.436C14.7376 141.188 13.7776 140.084 11.7856 140.084C9.79359 140.084 8.83359 141.176 8.83359 142.436C8.83359 143.384 9.31359 143.996 10.0336 144.368ZM11.7856 143.876C11.0296 143.876 10.4776 143.408 10.4776 142.688C10.4776 141.872 11.0056 141.44 11.7856 141.44C12.5896 141.44 13.1056 141.884 13.1056 142.676C13.1056 143.396 12.5536 143.876 11.7856 143.876ZM11.7856 145.1C12.6856 145.1 13.3096 145.58 13.3096 146.444C13.3096 147.212 12.7456 147.8 11.7856 147.8C10.8256 147.8 10.2496 147.224 10.2496 146.444C10.2496 145.556 10.9096 145.1 11.7856 145.1ZM18.2365 148.1C18.2365 147.548 17.8045 147.116 17.2165 147.116C16.6045 147.116 16.1725 147.548 16.1725 148.1C16.1725 148.652 16.6045 149.084 17.2165 149.084C17.8045 149.084 18.2365 148.652 18.2365 148.1ZM19.8537 140.228V145.364H21.4617C21.6417 144.824 22.0857 144.44 22.7817 144.44C23.7297 144.44 24.2217 144.98 24.2217 145.964C24.2217 146.888 23.7777 147.584 22.7937 147.584C21.9777 147.584 21.4857 147.14 21.3417 146.528H19.7097C19.8537 147.956 20.9337 149 22.8177 149C24.8097 149 25.8417 147.728 25.8417 145.94C25.8417 144.584 25.1457 143.048 23.1057 143.048C22.3737 143.048 21.7137 143.36 21.3897 143.756V141.704H25.2777V140.228H19.8537ZM33.2164 142.436C33.0844 141.2 32.2444 140.048 30.4564 140.048C28.2364 140.048 27.3124 141.632 27.3124 144.488C27.3124 147.2 27.9604 149.024 30.5524 149.024C32.4244 149.024 33.4684 147.788 33.4684 146.096C33.4684 144.272 32.3764 143.24 30.8164 143.24C29.9644 143.24 29.1724 143.6 28.7764 144.26C28.8004 142.244 29.3044 141.428 30.3964 141.428C31.1524 141.428 31.5004 141.788 31.6564 142.436H33.2164ZM30.4324 144.62C31.4044 144.62 31.8724 145.232 31.8724 146.132C31.8724 147.032 31.3324 147.596 30.4684 147.596C29.4844 147.596 28.9324 147.008 28.9324 146.072C28.9324 145.076 29.6524 144.62 30.4324 144.62ZM37.8235 145.796C37.8235 148.004 39.3355 149.084 41.1715 149.084C43.0075 149.084 44.5915 148.004 44.5915 145.796V140.624H42.8995V145.808C42.8995 146.96 42.2755 147.56 41.1955 147.56C40.1275 147.56 39.5035 146.96 39.5035 145.808V140.624H37.8235V145.796ZM52.0707 146.576C52.0707 143.624 47.7747 144.56 47.7747 142.88C47.7747 142.196 48.2667 141.872 48.9267 141.896C49.6467 141.908 50.0907 142.34 50.1267 142.892H51.9747C51.8667 141.38 50.6907 140.504 48.9747 140.504C47.2467 140.504 46.0227 141.416 46.0227 142.928C46.0107 145.964 50.3307 144.872 50.3307 146.684C50.3307 147.284 49.8627 147.704 49.0707 147.704C48.2907 147.704 47.8467 147.26 47.7987 146.588H45.9987C46.0227 148.172 47.3667 149.084 49.1067 149.084C51.0147 149.084 52.0707 147.896 52.0707 146.576ZM56.4552 140.624H53.5272V149H56.4552C59.1312 149 60.8712 147.356 60.8712 144.824C60.8712 142.28 59.1312 140.624 56.4552 140.624ZM55.2072 147.572V142.04H56.3952C58.1592 142.04 59.1552 143.084 59.1552 144.824C59.1552 146.564 58.1592 147.572 56.3952 147.572H55.2072Z" fill="#A9A9A9"/>
<path d="M0 145.016H61.3032V145.616H0V145.016Z" fill="#A9A9A9"/>
<rect x="228.5" y="116" width="91" height="31" rx="11.5" fill="#F9F9F9"/>
<path d="M238.91 137H237.803V129.877C237.803 129.285 237.821 128.724 237.857 128.195C237.762 128.291 237.655 128.391 237.536 128.496C237.418 128.601 236.875 129.045 235.909 129.829L235.308 129.05L237.953 127.006H238.91V137ZM246.724 137.137C246.236 137.137 245.789 137.048 245.384 136.87C244.983 136.688 244.646 136.41 244.372 136.036H244.29C244.345 136.474 244.372 136.888 244.372 137.28V140.363H243.237V129.508H244.16L244.317 130.533H244.372C244.664 130.123 245.003 129.827 245.391 129.645C245.778 129.462 246.222 129.371 246.724 129.371C247.717 129.371 248.483 129.711 249.021 130.39C249.563 131.069 249.834 132.021 249.834 133.247C249.834 134.478 249.558 135.435 249.007 136.118C248.46 136.797 247.699 137.137 246.724 137.137ZM246.56 130.335C245.794 130.335 245.24 130.547 244.898 130.971C244.557 131.395 244.381 132.069 244.372 132.994V133.247C244.372 134.3 244.548 135.054 244.898 135.51C245.249 135.961 245.812 136.187 246.587 136.187C247.234 136.187 247.74 135.924 248.104 135.4C248.474 134.876 248.658 134.154 248.658 133.233C248.658 132.299 248.474 131.584 248.104 131.087C247.74 130.586 247.225 130.335 246.56 130.335ZM254.817 137.137C253.733 137.137 252.892 136.804 252.295 136.139C251.702 135.469 251.406 134.523 251.406 133.302C251.406 132.049 251.707 131.08 252.309 130.396C252.915 129.713 253.776 129.371 254.893 129.371C255.253 129.371 255.613 129.41 255.973 129.487C256.333 129.565 256.615 129.656 256.82 129.761L256.472 130.725C256.221 130.624 255.948 130.542 255.651 130.479C255.355 130.41 255.093 130.376 254.865 130.376C253.343 130.376 252.582 131.347 252.582 133.288C252.582 134.209 252.767 134.915 253.136 135.407C253.509 135.899 254.061 136.146 254.79 136.146C255.414 136.146 256.055 136.011 256.711 135.742V136.747C256.21 137.007 255.578 137.137 254.817 137.137ZM263.328 134.956C263.328 135.653 263.068 136.191 262.549 136.569C262.029 136.948 261.3 137.137 260.361 137.137C259.368 137.137 258.593 136.979 258.037 136.665V135.612C258.397 135.795 258.782 135.938 259.192 136.043C259.607 136.148 260.006 136.2 260.389 136.2C260.981 136.2 261.437 136.107 261.756 135.92C262.075 135.729 262.234 135.439 262.234 135.052C262.234 134.76 262.107 134.512 261.852 134.307C261.601 134.097 261.109 133.851 260.375 133.568C259.678 133.309 259.181 133.083 258.885 132.892C258.593 132.696 258.374 132.475 258.229 132.229C258.087 131.982 258.017 131.688 258.017 131.347C258.017 130.736 258.265 130.255 258.762 129.904C259.258 129.549 259.94 129.371 260.806 129.371C261.612 129.371 262.401 129.535 263.171 129.863L262.768 130.786C262.016 130.476 261.334 130.321 260.724 130.321C260.186 130.321 259.78 130.406 259.507 130.574C259.233 130.743 259.097 130.975 259.097 131.271C259.097 131.472 259.147 131.643 259.247 131.784C259.352 131.925 259.518 132.06 259.746 132.188C259.974 132.315 260.411 132.5 261.059 132.741C261.947 133.065 262.547 133.391 262.856 133.719C263.171 134.047 263.328 134.459 263.328 134.956Z" fill="#F9F9F9"/>
<path d="M238.91 137V138H239.91V137H238.91ZM237.803 137H236.803V138H237.803V137ZM237.857 128.195L238.855 128.264L239.039 125.6L237.15 127.488L237.857 128.195ZM237.536 128.496L236.874 127.747L237.536 128.496ZM235.909 129.829L235.118 130.44L235.744 131.251L236.539 130.606L235.909 129.829ZM235.308 129.05L234.696 128.258L233.905 128.87L234.516 129.661L235.308 129.05ZM237.953 127.006V126.006H237.612L237.342 126.215L237.953 127.006ZM238.91 127.006H239.91V126.006H238.91V127.006ZM238.91 136H237.803V138H238.91V136ZM238.803 137V129.877H236.803V137H238.803ZM238.803 129.877C238.803 129.305 238.82 128.767 238.855 128.264L236.86 128.127C236.822 128.681 236.803 129.264 236.803 129.877H238.803ZM237.15 127.488C237.071 127.567 236.979 127.654 236.874 127.747L238.199 129.245C238.33 129.129 238.452 129.015 238.565 128.902L237.15 127.488ZM236.874 127.747C236.776 127.834 236.258 128.258 235.279 129.053L236.539 130.606C237.493 129.832 238.059 129.368 238.199 129.245L236.874 127.747ZM236.701 129.218L236.099 128.439L234.516 129.661L235.118 130.44L236.701 129.218ZM235.919 129.841L238.565 127.797L237.342 126.215L234.696 128.258L235.919 129.841ZM237.953 128.006H238.91V126.006H237.953V128.006ZM237.91 127.006V137H239.91V127.006H237.91ZM245.384 136.87L244.97 137.781L244.982 137.786L245.384 136.87ZM244.372 136.036L245.179 135.446L244.879 135.036H244.372V136.036ZM244.29 136.036V135.036H243.157L243.298 136.16L244.29 136.036ZM244.372 140.363V141.363H245.372V140.363H244.372ZM243.237 140.363H242.237V141.363H243.237V140.363ZM243.237 129.508V128.508H242.237V129.508H243.237ZM244.16 129.508L245.149 129.356L245.019 128.508H244.16V129.508ZM244.317 130.533L243.329 130.685L243.459 131.533H244.317V130.533ZM244.372 130.533V131.533H244.888L245.187 131.113L244.372 130.533ZM249.021 130.39L248.237 131.01L248.239 131.014L249.021 130.39ZM249.007 136.118L248.229 135.49L248.228 135.491L249.007 136.118ZM244.372 132.994L243.372 132.984V132.994H244.372ZM244.898 135.51L244.106 136.12L244.109 136.124L244.898 135.51ZM248.104 135.4L247.287 134.825L247.284 134.829L248.104 135.4ZM248.104 131.087L247.296 131.675L247.302 131.683L248.104 131.087ZM246.724 136.137C246.36 136.137 246.052 136.071 245.785 135.954L244.982 137.786C245.527 138.025 246.112 138.137 246.724 138.137V136.137ZM245.798 135.96C245.561 135.852 245.356 135.688 245.179 135.446L243.565 136.627C243.935 137.132 244.404 137.523 244.97 137.78L245.798 135.96ZM244.372 135.036H244.29V137.036H244.372V135.036ZM243.298 136.16C243.348 136.562 243.372 136.935 243.372 137.28H245.372C245.372 136.842 245.342 136.386 245.282 135.912L243.298 136.16ZM243.372 137.28V140.363H245.372V137.28H243.372ZM244.372 139.363H243.237V141.363H244.372V139.363ZM244.237 140.363V129.508H242.237V140.363H244.237ZM243.237 130.508H244.16V128.508H243.237V130.508ZM243.172 129.659L243.329 130.685L245.306 130.382L245.149 129.356L243.172 129.659ZM244.317 131.533H244.372V129.533H244.317V131.533ZM245.187 131.113C245.397 130.818 245.61 130.647 245.816 130.549L244.965 128.74C244.397 129.007 243.931 129.428 243.557 129.954L245.187 131.113ZM245.816 130.549C246.05 130.44 246.345 130.371 246.724 130.371V128.371C246.1 128.371 245.506 128.485 244.965 128.74L245.816 130.549ZM246.724 130.371C247.462 130.371 247.918 130.608 248.237 131.01L249.804 129.769C249.048 128.813 247.972 128.371 246.724 128.371V130.371ZM248.239 131.014C248.592 131.455 248.834 132.157 248.834 133.247H250.834C250.834 131.886 250.534 130.682 249.802 129.766L248.239 131.014ZM248.834 133.247C248.834 134.339 248.589 135.044 248.229 135.49L249.785 136.746C250.528 135.825 250.834 134.616 250.834 133.247H248.834ZM248.228 135.491C247.895 135.904 247.437 136.137 246.724 136.137V138.137C247.961 138.137 249.025 137.69 249.786 136.745L248.228 135.491ZM246.56 129.335C245.62 129.335 244.72 129.599 244.12 130.343L245.677 131.598C245.76 131.495 245.967 131.335 246.56 131.335V129.335ZM244.12 130.343C243.568 131.028 243.382 131.977 243.372 132.984L245.372 133.004C245.38 132.161 245.545 131.761 245.677 131.598L244.12 130.343ZM243.372 132.994V133.247H245.372V132.994H243.372ZM243.372 133.247C243.372 134.36 243.548 135.395 244.106 136.12L245.691 134.9C245.547 134.713 245.372 134.24 245.372 133.247H243.372ZM244.109 136.124C244.711 136.898 245.621 137.187 246.587 137.187V135.187C246.003 135.187 245.787 135.024 245.688 134.896L244.109 136.124ZM246.587 137.187C247.556 137.187 248.371 136.769 248.925 135.971L247.284 134.829C247.109 135.08 246.912 135.187 246.587 135.187V137.187ZM248.922 135.976C249.451 135.225 249.658 134.274 249.658 133.233H247.658C247.658 134.034 247.496 134.528 247.287 134.825L248.922 135.976ZM249.658 133.233C249.658 132.188 249.455 131.228 248.907 130.49L247.302 131.683C247.492 131.94 247.658 132.41 247.658 133.233H249.658ZM248.913 130.499C248.345 129.717 247.517 129.335 246.56 129.335V131.335C246.932 131.335 247.135 131.454 247.296 131.675L248.913 130.499ZM252.295 136.139L251.546 136.801L251.551 136.807L252.295 136.139ZM252.309 130.396L251.56 129.733L251.558 129.736L252.309 130.396ZM256.82 129.761L257.761 130.101L258.061 129.272L257.275 128.87L256.82 129.761ZM256.472 130.725L256.1 131.653L257.06 132.037L257.412 131.065L256.472 130.725ZM255.651 130.479L255.427 131.453L255.434 131.455L255.441 131.456L255.651 130.479ZM253.136 135.407L252.336 136.007L252.339 136.012L253.136 135.407ZM256.711 135.742H257.711V134.252L256.332 134.817L256.711 135.742ZM256.711 136.747L257.171 137.635L257.711 137.355V136.747H256.711ZM254.817 136.137C253.951 136.137 253.407 135.88 253.039 135.471L251.551 136.807C252.377 137.728 253.514 138.137 254.817 138.137V136.137ZM253.044 135.476C252.664 135.047 252.406 134.369 252.406 133.302H250.406C250.406 134.677 250.741 135.891 251.546 136.801L253.044 135.476ZM252.406 133.302C252.406 132.2 252.67 131.499 253.059 131.057L251.558 129.736C250.744 130.661 250.406 131.897 250.406 133.302H252.406ZM253.057 131.06C253.432 130.637 253.993 130.371 254.893 130.371V128.371C253.559 128.371 252.398 128.789 251.56 129.733L253.057 131.06ZM254.893 130.371C255.18 130.371 255.47 130.402 255.762 130.465L256.183 128.51C255.755 128.418 255.325 128.371 254.893 128.371V130.371ZM255.762 130.465C256.082 130.534 256.27 130.602 256.365 130.651L257.275 128.87C256.961 128.71 256.584 128.596 256.183 128.51L255.762 130.465ZM255.88 129.421L255.531 130.384L257.412 131.065L257.761 130.101L255.88 129.421ZM256.843 129.796C256.534 129.673 256.206 129.575 255.862 129.501L255.441 131.456C255.689 131.509 255.908 131.576 256.1 131.653L256.843 129.796ZM255.876 129.504C255.529 129.424 255.189 129.376 254.865 129.376V131.376C254.997 131.376 255.181 131.396 255.427 131.453L255.876 129.504ZM254.865 129.376C253.876 129.376 252.98 129.704 252.366 130.487C251.788 131.224 251.582 132.214 251.582 133.288H253.582C253.582 132.421 253.757 131.955 253.94 131.721C254.087 131.534 254.332 131.376 254.865 131.376V129.376ZM251.582 133.288C251.582 134.323 251.787 135.275 252.336 136.007L253.936 134.807C253.747 134.555 253.582 134.094 253.582 133.288H251.582ZM252.339 136.012C252.937 136.8 253.812 137.146 254.79 137.146V135.146C254.31 135.146 254.081 134.999 253.932 134.803L252.339 136.012ZM254.79 137.146C255.561 137.146 256.33 136.979 257.09 136.668L256.332 134.817C255.78 135.043 255.268 135.146 254.79 135.146V137.146ZM255.711 135.742V136.747H257.711V135.742H255.711ZM256.251 135.859C255.932 136.024 255.472 136.137 254.817 136.137V138.137C255.685 138.137 256.487 137.989 257.171 137.635L256.251 135.859ZM258.037 136.665H257.037V137.248L257.545 137.535L258.037 136.665ZM258.037 135.612L258.489 134.72L257.037 133.985V135.612H258.037ZM259.192 136.043L258.945 137.012L258.947 137.012L259.192 136.043ZM261.756 135.92L262.261 136.783L262.27 136.777L261.756 135.92ZM261.852 134.307L261.21 135.074L261.218 135.08L261.225 135.086L261.852 134.307ZM260.375 133.568L260.734 132.635L260.724 132.631L260.375 133.568ZM258.885 132.892L258.327 133.722L258.335 133.727L258.342 133.732L258.885 132.892ZM258.229 132.229L257.361 132.726L257.368 132.738L258.229 132.229ZM258.762 129.904L259.339 130.721L259.344 130.718L258.762 129.904ZM263.171 129.863L264.087 130.264L264.491 129.339L263.563 128.943L263.171 129.863ZM262.768 130.786L262.387 131.711L263.292 132.084L263.684 131.187L262.768 130.786ZM259.247 131.784L258.432 132.363L258.438 132.372L258.444 132.38L259.247 131.784ZM261.059 132.741L260.709 133.678L260.716 133.681L261.059 132.741ZM262.856 133.719L262.129 134.405L262.134 134.411L262.856 133.719ZM262.328 134.956C262.328 135.365 262.197 135.589 261.96 135.761L263.137 137.378C263.94 136.793 264.328 135.941 264.328 134.956H262.328ZM261.96 135.761C261.674 135.969 261.182 136.137 260.361 136.137V138.137C261.418 138.137 262.384 137.926 263.137 137.378L261.96 135.761ZM260.361 136.137C259.453 136.137 258.874 135.99 258.529 135.795L257.545 137.535C258.312 137.969 259.283 138.137 260.361 138.137V136.137ZM259.037 136.665V135.612H257.037V136.665H259.037ZM257.585 136.504C258.014 136.721 258.467 136.89 258.945 137.012L259.44 135.074C259.097 134.986 258.781 134.868 258.489 134.72L257.585 136.504ZM258.947 137.012C259.433 137.135 259.914 137.2 260.389 137.2V135.2C260.097 135.2 259.781 135.16 259.437 135.073L258.947 137.012ZM260.389 137.2C261.062 137.2 261.723 137.098 262.261 136.783L261.25 135.057C261.151 135.115 260.9 135.2 260.389 135.2V137.2ZM262.27 136.777C262.905 136.396 263.234 135.773 263.234 135.052H261.234C261.234 135.08 261.231 135.093 261.231 135.095C261.231 135.095 261.231 135.094 261.233 135.09C261.234 135.087 261.236 135.082 261.239 135.077C261.242 135.071 261.245 135.066 261.248 135.062C261.252 135.057 261.255 135.054 261.256 135.053C261.26 135.049 261.257 135.053 261.241 135.062L262.27 136.777ZM263.234 135.052C263.234 134.417 262.937 133.896 262.478 133.527L261.225 135.086C261.244 135.101 261.253 135.111 261.255 135.114C261.257 135.116 261.254 135.113 261.249 135.104C261.244 135.094 261.24 135.083 261.237 135.071C261.236 135.066 261.235 135.061 261.235 135.057C261.235 135.056 261.234 135.054 261.234 135.053C261.234 135.053 261.234 135.052 261.234 135.052C261.234 135.052 261.234 135.052 261.234 135.052C261.234 135.052 261.234 135.052 261.234 135.052C261.234 135.052 261.234 135.052 261.234 135.052C261.234 135.052 261.234 135.052 261.234 135.052C261.234 135.052 261.234 135.052 261.234 135.052H263.234ZM262.493 133.54C262.102 133.212 261.467 132.917 260.734 132.635L260.016 134.502C260.751 134.785 261.1 134.982 261.21 135.074L262.493 133.54ZM260.724 132.631C260.037 132.375 259.627 132.181 259.427 132.052L258.342 133.732C258.735 133.985 259.318 134.242 260.026 134.505L260.724 132.631ZM259.442 132.062C259.247 131.93 259.144 131.811 259.089 131.719L257.368 132.738C257.605 133.138 257.94 133.461 258.327 133.722L259.442 132.062ZM259.096 131.731C259.058 131.664 259.017 131.549 259.017 131.347H257.017C257.017 131.827 257.117 132.301 257.361 132.726L259.096 131.731ZM259.017 131.347C259.017 131.059 259.109 130.884 259.339 130.721L258.185 129.088C257.421 129.627 257.017 130.413 257.017 131.347H259.017ZM259.344 130.718C259.613 130.525 260.064 130.371 260.806 130.371V128.371C259.815 128.371 258.904 128.573 258.18 129.091L259.344 130.718ZM260.806 130.371C261.472 130.371 262.128 130.506 262.779 130.783L263.563 128.943C262.674 128.564 261.752 128.371 260.806 128.371V130.371ZM262.255 129.463L261.851 130.386L263.684 131.187L264.087 130.264L262.255 129.463ZM263.149 129.862C262.314 129.517 261.501 129.321 260.724 129.321V131.321C261.168 131.321 261.718 131.435 262.387 131.711L263.149 129.862ZM260.724 129.321C260.112 129.321 259.487 129.412 258.982 129.723L260.032 131.425C260.074 131.399 260.26 131.321 260.724 131.321V129.321ZM258.982 129.723C258.443 130.055 258.097 130.594 258.097 131.271H260.097C260.097 131.275 260.096 131.289 260.09 131.312C260.085 131.335 260.075 131.359 260.061 131.382C260.032 131.431 260.007 131.44 260.032 131.425L258.982 129.723ZM258.097 131.271C258.097 131.646 258.193 132.027 258.432 132.363L260.063 131.205C260.078 131.228 260.089 131.251 260.094 131.269C260.099 131.285 260.097 131.288 260.097 131.271H258.097ZM258.444 132.38C258.664 132.676 258.961 132.894 259.257 133.06L260.235 131.315C260.16 131.273 260.11 131.238 260.079 131.213C260.048 131.188 260.043 131.179 260.05 131.188L258.444 132.38ZM259.257 133.06C259.561 133.23 260.067 133.439 260.709 133.678L261.408 131.804C260.756 131.561 260.387 131.4 260.235 131.315L259.257 133.06ZM260.716 133.681C261.585 133.997 261.991 134.259 262.129 134.405L263.583 133.032C263.102 132.522 262.309 132.132 261.401 131.802L260.716 133.681ZM262.134 134.411C262.253 134.535 262.328 134.691 262.328 134.956H264.328C264.328 134.228 264.089 133.559 263.578 133.027L262.134 134.411Z" fill="#D1D1D1"/>
<line x1="270.5" y1="121.5" x2="270.5" y2="141.5" stroke="#D1D1D1"/>
<g clip-path="url(#clip8_6737_26162)">
<path d="M278.508 130.928V128.492H279.84C280.788 128.492 281.208 128.948 281.208 129.716C281.208 130.46 280.788 130.928 279.84 130.928H278.508ZM282.936 129.716C282.936 128.264 281.928 127.124 279.912 127.124H276.828V135.5H278.508V132.284H279.912C282.072 132.284 282.936 130.988 282.936 129.716ZM283.697 132.176C283.697 134.264 285.065 135.608 286.985 135.608C288.641 135.608 289.757 134.672 290.117 133.256H288.305C288.101 133.856 287.669 134.168 286.973 134.168C286.037 134.168 285.413 133.472 285.413 132.176C285.413 130.88 286.037 130.172 286.973 130.172C287.669 130.172 288.113 130.532 288.305 131.096H290.117C289.757 129.608 288.641 128.744 286.985 128.744C285.065 128.744 283.697 130.088 283.697 132.176ZM296.508 133.604C296.46 131.168 292.776 131.924 292.776 130.712C292.776 130.328 293.1 130.076 293.724 130.076C294.384 130.076 294.792 130.424 294.84 130.94H296.448C296.352 129.62 295.38 128.744 293.772 128.744C292.128 128.744 291.144 129.632 291.144 130.736C291.144 133.172 294.9 132.416 294.9 133.604C294.9 133.988 294.54 134.288 293.88 134.288C293.208 134.288 292.74 133.904 292.68 133.4H290.988C291.06 134.636 292.224 135.608 293.892 135.608C295.512 135.608 296.508 134.744 296.508 133.604Z" fill="#151515"/>
<path d="M305.609 130.4L307.664 132.455C307.758 132.548 307.885 132.6 308.017 132.6C308.149 132.6 308.276 132.548 308.369 132.455L310.369 130.455" stroke="#151515" stroke-width="1.5" stroke-linecap="round" stroke-linejoin="bevel"/>
</g>
<rect x="228.5" y="116" width="91" height="31" rx="11.5" stroke="#D1D1D1"/>
</g>
</g>
<defs>
<clipPath id="clip0_6737_26162">
<rect width="320" height="154" fill="white"/>
</clipPath>
<clipPath id="clip1_6737_26162">
<rect width="251" height="93" fill="white"/>
</clipPath>
<clipPath id="clip2_6737_26162">
<rect width="251" height="93" fill="white"/>
</clipPath>
<clipPath id="clip3_6737_26162">
<rect width="251" height="93" fill="white"/>
</clipPath>
<clipPath id="clip4_6737_26162">
<rect width="251" height="69" fill="white"/>
</clipPath>
<clipPath id="clip5_6737_26162">
<rect width="88" height="16" fill="white" transform="translate(0 77)"/>
</clipPath>
<clipPath id="clip6_6737_26162">
<rect width="16" height="16" fill="white" transform="translate(72 77)"/>
</clipPath>
<clipPath id="clip7_6737_26162">
<rect width="320" height="45" fill="white" transform="translate(0 109)"/>
</clipPath>
<clipPath id="clip8_6737_26162">
<rect width="38" height="18" fill="white" transform="translate(276 122.5)"/>
</clipPath>
</defs>
</svg>
